<svg width="11" height="13" viewBox="0 0 11 13" fill="none" xmlns="http://www.w3.org/2000/svg">
<path d="M5.25586 11.5L2.10586 12.85C1.60586 13.0625 1.13086 13.0219 0.680859 12.7281C0.230859 12.4344 0.00585938 12.0188 0.00585938 11.4813V1.75C0.00585938 1.3375 0.152734 0.984375 0.446484 0.690625C0.740234 0.396875 1.09336 0.25 1.50586 0.25H9.00586C9.41836 0.25 9.77148 0.396875 10.0652 0.690625C10.359 0.984375 10.5059 1.3375 10.5059 1.75V11.4813C10.5059 12.0188 10.2809 12.4344 9.83086 12.7281C9.38086 13.0219 8.90586 13.0625 8.40586 12.85L5.25586 11.5ZM5.25586 9.85L9.00586 11.4625V1.75H1.50586V11.4625L5.25586 9.85Z" fill="#E8E8E8"/>
</svg>
