<svg width="16" height="15" viewBox="0 0 16 15" fill="none" xmlns="http://www.w3.org/2000/svg">
<path d="M4.50586 9.5H12.0059C12.2184 9.5 12.3965 9.42813 12.5402 9.28438C12.684 9.14063 12.7559 8.9625 12.7559 8.75C12.7559 8.5375 12.684 8.35938 12.5402 8.21563C12.3965 8.07188 12.2184 8 12.0059 8H4.50586C4.29336 8 4.11523 8.07188 3.97148 8.21563C3.82773 8.35938 3.75586 8.5375 3.75586 8.75C3.75586 8.9625 3.82773 9.14063 3.97148 9.28438C4.11523 9.42813 4.29336 9.5 4.50586 9.5ZM4.50586 7.25H12.0059C12.2184 7.25 12.3965 7.17813 12.5402 7.03438C12.684 6.89063 12.7559 6.7125 12.7559 6.5C12.7559 6.2875 12.684 6.10937 12.5402 5.96562C12.3965 5.82187 12.2184 5.75 12.0059 5.75H4.50586C4.29336 5.75 4.11523 5.82187 3.97148 5.96562C3.82773 6.10937 3.75586 6.2875 3.75586 6.5C3.75586 6.7125 3.82773 6.89063 3.97148 7.03438C4.11523 7.17813 4.29336 7.25 4.50586 7.25ZM4.50586 5H12.0059C12.2184 5 12.3965 4.92813 12.5402 4.78438C12.684 4.64063 12.7559 4.4625 12.7559 4.25C12.7559 4.0375 12.684 3.85937 12.5402 3.71562C12.3965 3.57187 12.2184 3.5 12.0059 3.5H4.50586C4.29336 3.5 4.11523 3.57187 3.97148 3.71562C3.82773 3.85937 3.75586 4.0375 3.75586 4.25C3.75586 4.4625 3.82773 4.64063 3.97148 4.78438C4.11523 4.92813 4.29336 5 4.50586 5ZM2.25586 12.5C1.84336 12.5 1.49023 12.3531 1.19648 12.0594C0.902734 11.7656 0.755859 11.4125 0.755859 11V2C0.755859 1.5875 0.902734 1.23438 1.19648 0.940625C1.49023 0.646875 1.84336 0.5 2.25586 0.5H14.2559C14.6684 0.5 15.0215 0.646875 15.3152 0.940625C15.609 1.23438 15.7559 1.5875 15.7559 2V13.6813C15.7559 14.0188 15.6027 14.2531 15.2965 14.3844C14.9902 14.5156 14.7184 14.4625 14.4809 14.225L12.7559 12.5H2.25586ZM13.3934 11L14.2559 11.8438V2H2.25586V11H13.3934Z" fill="#E8E8E8"/>
</svg>
