<svg width="16" height="15" viewBox="0 0 16 15" fill="none" xmlns="http://www.w3.org/2000/svg">
<path d="M8.25586 14.2436C8.08086 14.2436 7.90273 14.2123 7.72148 14.1498C7.54023 14.0873 7.38086 13.9873 7.24336 13.8498L5.94961 12.6686C4.62461 11.4561 3.42773 10.2529 2.35898 9.05918C1.29023 7.86543 0.755859 6.54981 0.755859 5.11231C0.755859 3.9373 1.14961 2.95605 1.93711 2.16855C2.72461 1.38105 3.70586 0.987305 4.88086 0.987305C5.54336 0.987305 6.16836 1.12793 6.75586 1.40918C7.34336 1.69043 7.84336 2.0748 8.25586 2.5623C8.66836 2.0748 9.16836 1.69043 9.75586 1.40918C10.3434 1.12793 10.9684 0.987305 11.6309 0.987305C12.8059 0.987305 13.7871 1.38105 14.5746 2.16855C15.3621 2.95605 15.7559 3.9373 15.7559 5.11231C15.7559 6.54981 15.2246 7.86856 14.1621 9.06856C13.0996 10.2686 11.8934 11.4748 10.5434 12.6873L9.26836 13.8498C9.13086 13.9873 8.97148 14.0873 8.79023 14.1498C8.60898 14.2123 8.43086 14.2436 8.25586 14.2436ZM7.54336 4.0623C7.18086 3.5498 6.79336 3.15918 6.38086 2.89043C5.96836 2.62168 5.46836 2.4873 4.88086 2.4873C4.13086 2.4873 3.50586 2.7373 3.00586 3.2373C2.50586 3.7373 2.25586 4.3623 2.25586 5.11231C2.25586 5.76231 2.48711 6.45293 2.94961 7.18418C3.41211 7.91543 3.96523 8.62481 4.60898 9.31231C5.25273 9.99981 5.91523 10.6436 6.59648 11.2436C7.27773 11.8436 7.83086 12.3373 8.25586 12.7248C8.68086 12.3373 9.23398 11.8436 9.91523 11.2436C10.5965 10.6436 11.259 9.99981 11.9027 9.31231C12.5465 8.62481 13.0996 7.91543 13.5621 7.18418C14.0246 6.45293 14.2559 5.76231 14.2559 5.11231C14.2559 4.3623 14.0059 3.7373 13.5059 3.2373C13.0059 2.7373 12.3809 2.4873 11.6309 2.4873C11.0434 2.4873 10.5434 2.62168 10.1309 2.89043C9.71836 3.15918 9.33086 3.5498 8.96836 4.0623C8.88086 4.1873 8.77461 4.28105 8.64961 4.34355C8.52461 4.40605 8.39336 4.4373 8.25586 4.4373C8.11836 4.4373 7.98711 4.40605 7.86211 4.34355C7.73711 4.28105 7.63086 4.1873 7.54336 4.0623Z" fill="#E8E8E8"/>
</svg>
