<svg width="25" height="24" viewBox="0 0 25 24" fill="none" xmlns="http://www.w3.org/2000/svg">
<mask id="mask0_651_284" style="mask-type:alpha" maskUnits="userSpaceOnUse" x="0" y="0" width="25" height="24">
<rect x="0.625" width="24" height="24" fill="#D9D9D9"/>
</mask>
<g mask="url(#mask0_651_284)">
<path d="M10.625 18C10.075 18 9.60417 17.8042 9.2125 17.4125C8.82083 17.0208 8.625 16.55 8.625 16V14.75C7.675 14.1 6.9375 13.2667 6.4125 12.25C5.8875 11.2333 5.625 10.15 5.625 9C5.625 7.05 6.30417 5.39583 7.6625 4.0375C9.02083 2.67917 10.675 2 12.625 2C14.575 2 16.2292 2.67917 17.5875 4.0375C18.9458 5.39583 19.625 7.05 19.625 9C19.625 10.15 19.3625 11.2292 18.8375 12.2375C18.3125 13.2458 17.575 14.0833 16.625 14.75V16C16.625 16.55 16.4292 17.0208 16.0375 17.4125C15.6458 17.8042 15.175 18 14.625 18H10.625ZM10.625 16H14.625V13.7L15.475 13.1C16.1583 12.6333 16.6875 12.0375 17.0625 11.3125C17.4375 10.5875 17.625 9.81667 17.625 9C17.625 7.61667 17.1375 6.4375 16.1625 5.4625C15.1875 4.4875 14.0083 4 12.625 4C11.2417 4 10.0625 4.4875 9.0875 5.4625C8.1125 6.4375 7.625 7.61667 7.625 9C7.625 9.81667 7.8125 10.5875 8.1875 11.3125C8.5625 12.0375 9.09167 12.6333 9.775 13.1L10.625 13.7V16ZM10.625 22C10.3417 22 10.1042 21.9042 9.9125 21.7125C9.72083 21.5208 9.625 21.2833 9.625 21V20H15.625V21C15.625 21.2833 15.5292 21.5208 15.3375 21.7125C15.1458 21.9042 14.9083 22 14.625 22H10.625Z" fill="white"/>
</g>
</svg>
