<svg width="25" height="24" viewBox="0 0 25 24" fill="none" xmlns="http://www.w3.org/2000/svg">
<mask id="mask0_651_278" style="mask-type:alpha" maskUnits="userSpaceOnUse" x="0" y="0" width="25" height="24">
<rect x="0.625" width="24" height="24" fill="#D9D9D9"/>
</mask>
<g mask="url(#mask0_651_278)">
<path d="M20.225 21L13.925 14.7C13.425 15.1 12.85 15.4167 12.2 15.65C11.55 15.8833 10.8583 16 10.125 16C8.30833 16 6.77083 15.3708 5.5125 14.1125C4.25417 12.8542 3.625 11.3167 3.625 9.5C3.625 7.68333 4.25417 6.14583 5.5125 4.8875C6.77083 3.62917 8.30833 3 10.125 3C11.9417 3 13.4792 3.62917 14.7375 4.8875C15.9958 6.14583 16.625 7.68333 16.625 9.5C16.625 10.2333 16.5083 10.925 16.275 11.575C16.0417 12.225 15.725 12.8 15.325 13.3L21.625 19.6L20.225 21ZM10.125 14C11.375 14 12.4375 13.5625 13.3125 12.6875C14.1875 11.8125 14.625 10.75 14.625 9.5C14.625 8.25 14.1875 7.1875 13.3125 6.3125C12.4375 5.4375 11.375 5 10.125 5C8.875 5 7.8125 5.4375 6.9375 6.3125C6.0625 7.1875 5.625 8.25 5.625 9.5C5.625 10.75 6.0625 11.8125 6.9375 12.6875C7.8125 13.5625 8.875 14 10.125 14Z" fill="white"/>
</g>
</svg>
